<svg xmlns="http://www.w3.org/2000/svg" xmlns:xlink="http://www.w3.org/1999/xlink" viewBox="0 0 167.46 50"><defs><style>.cls-1{fill:#fff;}.cls-2{fill:#009fdb;}.cls-3{fill:#046eb7;}.cls-4{fill:#3e3a39;}.cls-5{fill:#595857;}</style><symbol id="TNL-logo-50" data-name="TNL-logo-50" viewBox="0 0 50 50"><polygon class="cls-1" points="50 23.99 50 26 42.02 26 35.72 39.25 29.2 24.67 25 34 0 34 0 31.97 23.02 31.97 29.32 18.22 35.83 33.88 41.01 23.99 50 23.99"/><path class="cls-2" d="M50,2.35V24H41l-5.18,9.89L29.32,18.22,23,32H0V2.35A2.36,2.36,0,0,1,1.88.05a1.83,1.83,0,0,1,.47,0h45.3a1.83,1.83,0,0,1,.47.05A2.36,2.36,0,0,1,50,2.35Z"/><path class="cls-2" d="M50,26V47.64A2.36,2.36,0,0,1,47.65,50H2.35A2.36,2.36,0,0,1,0,47.64V34H25l4.2-9.33,6.52,14.58L42,26Z"/></symbol></defs><g id="圖層_2" data-name="圖層 2"><g id="Photo_credit" data-name="Photo credit"><g id="首圖_中文短logo_淺色底"><g id="logo_上左"><path class="cls-3" d="M72.2,11H63.94V27.3H61.55v-24H72.2ZM70,5h-6V6.26h6Zm-6,4.21h6V7.86h-6Zm6.85,2.17-1.42,1.47A14.13,14.13,0,0,1,68.07,14l1.17,0,1.06,0a6.62,6.62,0,0,0,.76-.6l.52-.54,1.74.54a21.69,21.69,0,0,1-5.11,3.75l1.49,0L71,17.13l-.16-.41-.19-.46,1.5-.19a25.61,25.61,0,0,1,1,2.83l-1.77.3-.08-.6-3,.14-3.12.08-.38-1.72.81.09.52-.25a19.15,19.15,0,0,0,2.47-1.36,2.72,2.72,0,0,1,.3-.19l-1.6.06-1.74,0-.33-1.6.76.05.52-.46A14,14,0,0,0,68.8,11ZM67.23,27,66.11,25.1Q70,24.74,70.22,23H65.79V19.74h2v1.6H70.3V19.5h2.12v2.88q0,3.69-5.19,4.59M78,11.45a12.37,12.37,0,0,1-1.25,1.41l-1.3,1.25H78l.6-.54.52-.57,1.76.63a21,21,0,0,1-4.24,3.53,2.78,2.78,0,0,0-.4.24l1.63-.11a3.49,3.49,0,0,0,1.33-.16L79,16.78l-.22-.49L80.22,16l.63,1.42c.07.2.2.61.4,1.25,0,.07.06.17.11.3l-1.6.38-.22-.71-2.93.24L73.78,19l-.46-1.66H74l.51-.29a5.79,5.79,0,0,0,.9-.6l1.33-1-1.82.11-1.63,0L72.88,14l.6,0a13.94,13.94,0,0,0,2.58-2.9ZM76.12,19.5v2.23h2.34v-2h2v3.75H76.12v3.43H74V19.5Zm3.29,5.13,2.25.14q.93,0,.93-.84V11H74.05V3.27H85V24.58a2.85,2.85,0,0,1-.51,1.81,2.54,2.54,0,0,1-2,.63h-2.2ZM76.33,6.26h6.26V5H76.33Zm6.26,1.6H76.33V9.25h6.26Z"/><path class="cls-3" d="M96.37,24.85a43.82,43.82,0,0,1-7.94,2l-.27-2.34,2.15-.33,1.6-.29v-8.3H88.38v-2h3.53V11.15H89.68V9.77l-.84.89-.93-2.25c.29-.31.54-.57.74-.76A16.84,16.84,0,0,0,92,2.43h2.18L95.8,4.76l1.79,2.53L95.93,8.81,94.49,6.53l-1.25-1.9a14,14,0,0,1-2.91,4.46h6v2.06H94v2.37h2.55v2H94v7.86l1.19-.35,1.39-.41v2A12.19,12.19,0,0,0,98.54,22c.06-.11.14-.26.25-.44a21.89,21.89,0,0,1-1-2.74L97,16l1.71-.63L99.19,17a15.88,15.88,0,0,0,.66,2,16.33,16.33,0,0,0,.48-3.05l.22-2.63h-3V11.64a22.26,22.26,0,0,0,2.15-5.35c.05-.26.12-.56.21-.93H97V3.46h5V5.2l-.27,1.11A23.25,23.25,0,0,1,100,11.42h2.58V13a24.67,24.67,0,0,1-1.47,8.51,6.18,6.18,0,0,0,4.92,2.6v-2.5h-3.42v-2H106V17.81h-3v-2h3V14.2h-3V12.27h3v-2.1h-3.69V8.3H106v-2h-3V4.33h3v-2h2v2h3.7v4H113v1.87h-1.17v4h-3.7v1.63h4.19v2h-4.19v1.85h4.41v2h-4.41v2.67h2.12a15.7,15.7,0,0,0,2.75-.22l-.44,2.28h-4a16.58,16.58,0,0,1-5.16-.64,6.92,6.92,0,0,1-3.24-2.29,19.32,19.32,0,0,1-3.18,3.86l-1.2-1.85Zm-6.91-2.23-.3-2.72c-.16-1.35-.29-2.24-.38-2.66L90.52,17,91,19.55c.05.42.14,1.15.27,2.2a4.28,4.28,0,0,0,0,.55Zm7.4-5.68-.11,2.26c-.07.87-.18,1.66-.3,2.36l-1.74-.22c0-.16,0-.29.05-.4A19.24,19.24,0,0,0,95,19l.17-2.17Zm13-10.68h-1.77v2h1.77Zm0,3.91h-1.79v2.1h1.79Z"/><path class="cls-4" d="M124.47,7.7h-9.4V5.44h3.72l-.46-1.38c-.22-.53-.45-1-.68-1.44l2.47-.33.22.44a20.18,20.18,0,0,1,1,2.71h3.15Zm-8.78,1.79H124v2.12h-8.29Zm0,4H124v2.09h-8.29Zm.08,4.24H124V27h-2.31V25.8h-3.65v1.5h-2.31Zm6,2.07h-3.65v3.94h3.65Zm12.07-3.13h6.3V19h-6.3V27.3h-2.48V19H125V16.67h6.28V5.61h-5.9V3.24h14.33V5.61H133.8Zm-6.39-2-.27-1.17a38,38,0,0,0-1.61-5.63l2.23-.62c.53,1.34.9,2.4,1.12,3.18l1,3.61Zm12.2-7a47.15,47.15,0,0,1-2.25,7.15l-2.31-1.09a41.65,41.65,0,0,0,2-5.49c.07-.29.18-.67.32-1.14Z"/><path class="cls-4" d="M142.25,7.65V5.39h3.32l-.44-1.2a8.93,8.93,0,0,0-.71-1.57l2.34-.33A7.2,7.2,0,0,1,147.47,4L148,5.39h2.82V7.65Zm.81,1.76h7.21v2.18h-7.21Zm0,4h7.07v2.14h-7.07Zm7,13.61h-2.17V25.75h-2.61V27.3h-2.17V17.68h6.95Zm-2.17-7.28h-2.61v3.92h2.61ZM154,9l-.32.24a5.78,5.78,0,0,1-.73.49l-1.23.74L150.4,8.19a16.57,16.57,0,0,0,3.74-2.26,16.65,16.65,0,0,0,3.47-3.5h2.58a24.46,24.46,0,0,0,7.09,5.35l-1,2.37a3.23,3.23,0,0,0-.39-.19c-.32-.17-.59-.31-.81-.44L164,8.87v1.68H154ZM162,26.13h-2.17V20.45H158v5.68h-2.15V20.45h-1.74V27.3h-2.26V12.46h14.27V24.28a3.56,3.56,0,0,1-.5,2.08,2.43,2.43,0,0,1-2,.69h-1.44Zm-6.08-11.55h-1.74v3.75h1.74Zm7.25-6.31A25.55,25.55,0,0,1,159,4.57a20.5,20.5,0,0,1-4,3.7Zm-3.34,6.31H158v3.75h1.76Zm4.11.05H162v3.72h1.94Zm-.63,10.19c.42,0,.63-.22.63-.68V20.48H162v4.29Z"/><path class="cls-5" d="M63.59,35.27l1.15.57a15.08,15.08,0,0,1-4,5.58l-.92-1.16a14.52,14.52,0,0,0,2.41-2.58,14.84,14.84,0,0,0,1.35-2.41m6.7,4.8q-.18,5.45-.67,6.35a1.59,1.59,0,0,1-.69.69,6.21,6.21,0,0,1-2.1.22c-.38,0-.6,0-.68,0l-.38-1.26c.94,0,1.63,0,2.08,0s.66-.27.78-.81a28.67,28.67,0,0,0,.31-4H65.81a9.31,9.31,0,0,1-1,2.88,8,8,0,0,1-2,2.32,5.39,5.39,0,0,1-1.56,1.07l-.87-1.13a8.28,8.28,0,0,0,2.85-2.26,6.9,6.9,0,0,0,1.19-2.88h-2.2V40.07Zm-1.47-4.68A19.22,19.22,0,0,0,70.39,38a18.24,18.24,0,0,0,2,2.16l-1.09,1a18.19,18.19,0,0,1-3.18-4.53H65.54V35.39Z"/><path class="cls-5" d="M81.08,44.07h4.85v1.19H80.72v.81a1.56,1.56,0,0,1-.3,1.09,1.83,1.83,0,0,1-1.23.3h-2L77,46.23l1.93,0q.45,0,.45-.42v-.59H73.41V44.07h5.94v-.51l1.18-.3,1.55-.46H74.44V41.63h10v1a18.47,18.47,0,0,1-2.94,1.22l-.47.17m-7.52-6.8v-1.2h5.19l-.19-.36-.27-.45,1.49-.18.29.52.23.47h5.48v1.2Zm1.33.67H84.5v3H74.89Zm8.24,1H76.27v1h6.86Z"/><path class="cls-5" d="M93.58,47H89v.56H87.91V43l-.22.3-.29.36L87,42.42a6,6,0,0,0,1.43-2.06l1.06.13-.29.63h1.54l-.18-.38-.22-.4.41-.16V37.73h.67V37h-.76v-.92h.76v-1h1v1h1.43V37H92.46v.76h1.19v2.59H91.5l.19.39.16.41h1.89V42H91.88v.71h1.73v.82H91.88v.81h1.73v.8H91.88v1h1.89v.21a3.68,3.68,0,0,0,1.28-2.9H94.3v-8H99v8H97.64v2.46a.9.9,0,0,0,.08.47.58.58,0,0,0,.39.09c.24,0,.36-.24.36-.71V44.41l1,.32,0,1.41q0,1.26-1.38,1.26a1.71,1.71,0,0,1-1.13-.28,1.38,1.38,0,0,1-.29-1V43.41h-.52a5.41,5.41,0,0,1-2,4.18Zm-3.34-9.3v2.59H87.41V37.73h1.14V37H87.07v-.92h1.48v-1h1v1h.83V37h-.83v.76Zm-.94.78h-1v1h1ZM90.82,42H89v.71h1.85Zm0,1.53H89v.81h1.85Zm0,1.61H89v1h1.85Zm1.89-6.64h-1v1h1Zm5.12-2H95.4v1.2h2.43ZM95.4,40h2.43V38.64H95.4Zm0,2.41h2.43V40.94H95.4Z"/><path class="cls-5" d="M103.77,42.31h-2.55v-1h2.55v-.8H101.1V35.42h6.42v5.07h-2.73v.8h2.61v1h-2.61v.83l1.54-.11a5.31,5.31,0,0,0,1.22-.13v1l-3.22.26a25.86,25.86,0,0,0-3.45.19l-.25-1.1H102l1.79-.06Zm-1.37,2.54c0,.19-.06.35-.08.48a9.74,9.74,0,0,1-.68,2.24l-1-.43a7.73,7.73,0,0,0,.82-2.42Zm-.34-5.34h1.71v-3.1h-1.71Zm.26-2.36.62-.18.28.84c.06.21.13.49.2.85l0,.19-.71.21-.17-1a7.57,7.57,0,0,0-.26-1m.57,10.27a11.22,11.22,0,0,0,0-1.32,11.57,11.57,0,0,0,0-1.26l.92-.07a5.58,5.58,0,0,1,.13,1.2c0,.72,0,1.17,0,1.34Zm2-.23a12.21,12.21,0,0,0-.36-2.39l.89-.14a12.82,12.82,0,0,1,.46,2.3Zm-.06-7.68h1.77v-3.1h-1.77Zm.64-1.68.18-.9.65.16-.16,1a6.94,6.94,0,0,1-.22.95l-.75-.22.11-.33a6.63,6.63,0,0,0,.19-.7m1.29,9-.07-.34a6.21,6.21,0,0,0-.2-.74l-.37-1.09.81-.19a10.74,10.74,0,0,1,.74,2ZM109.48,41v-6h1.2v2.27h2.43v1.12h-2.43V41h1.93v6.55h-1.16v-.94h-2.32v.94H108V41Zm2,1.1h-2.32v3.41h2.32Z"/><path class="cls-5" d="M114.22,42a5.89,5.89,0,0,0,1.26-1.31,11.08,11.08,0,0,0,1.2-2l1.15.66-.4.71-.43.72v6.75h-1.23V42.39l-.48.56a6.34,6.34,0,0,1-.69.67Zm4-6A25.09,25.09,0,0,1,115,39.13l-.68-1.21a13.77,13.77,0,0,0,2.7-2.59ZM123,39.88v1.74h2.91v1.22H123v3a10.79,10.79,0,0,0,1.56.11h.14l2,0-.22,1.28H125.2a10.17,10.17,0,0,1-3.85-.47A5.68,5.68,0,0,1,119.51,45l-.46,1.17a9.34,9.34,0,0,1-.69,1.33l-1-1a13.47,13.47,0,0,0,1.78-6.27l1.24,0A16.42,16.42,0,0,1,120,43.6a4.23,4.23,0,0,0,1.78,1.95V39.88Zm.87-4.54c0-.06,0-.14.07-.22l1.23.29-.06.27a13.62,13.62,0,0,1-.53,1.51l1.08.75,1,.66-.79,1.2A19,19,0,0,0,124,38.28a9.1,9.1,0,0,1-1.09,1.46l-.77-1.14-.66,1-.81-.91a4.6,4.6,0,0,0-.41-.38l-.23-.2-.08.13a9.23,9.23,0,0,1-1,1.33l-.13.15-1-.93a5.89,5.89,0,0,0,1.3-1.42,9,9,0,0,0,.88-2.24l1.19.19-.22.87a4.69,4.69,0,0,1-.28.82l.85.7.79.69a6.7,6.7,0,0,0,1.58-3"/><path class="cls-5" d="M128.17,41.73A17.13,17.13,0,0,0,130,39.19h-2.1V38.06h3.46v1a19.28,19.28,0,0,1-1.49,2.37l-.16.22h1.62v.78a7,7,0,0,1-.22,1l-.32,1a3,3,0,0,0,1.63,1.4,16.64,16.64,0,0,0,4.11.32c1.09,0,2.13,0,3.13-.07.18,0,.4,0,.65,0l-.22,1.26h-3.26a19,19,0,0,1-4.87-.37,3.49,3.49,0,0,1-1.76-1.4,10.09,10.09,0,0,1-1.52,2.08l-.87-1a8.38,8.38,0,0,0,2.28-3.89h-1.9ZM130,37.81A15.55,15.55,0,0,0,128.1,36l.79-.79a13.44,13.44,0,0,1,1.82,1.49l.16.17Zm5.8-2.73a.93.93,0,0,1,0,.1,7.14,7.14,0,0,1,.42.92.59.59,0,0,0,0,.19h3.81v1.16h-8.54V36.29h3.44l-.19-.47a2.23,2.23,0,0,0-.31-.56Zm-3.43,3.05h7.12V39.2H132.4Zm0,1.82h7.12V41H132.4Zm.16,1.87h6.87v3.27h-6.87Zm5.67,1.08h-4.46V44h4.46Z"/><path class="cls-5" d="M147.09,40.07H143v7.52h-1.25V35.52h5.36Zm-1.21-3.55H143v.82h2.9ZM143,39.05h2.9v-.87H143Zm6.57,4.19h1.93v1.07h-1.93v2.9H148.4v-2.9h-1.57a3.61,3.61,0,0,1-2.16,3l-.93-.86.3-.16a2.66,2.66,0,0,0,1.59-2h-1.94V43.24h2V41.86H144.1v-1h7v1h-1.52Zm-1.15-1.38h-1.53v1.38h1.53Zm3.38,4.38c.3,0,.46-.14.46-.42V40.07h-4.16V35.52h5.41V46.14a1.12,1.12,0,0,1-1.28,1.26h-1.48l-.31-1.21Zm-2.5-8.9h3v-.82h-3Zm3,.84h-3v.87h3Z"/><path class="cls-5" d="M156.65,37.56l.15-1.19.13-1.26,1.21,0L158,36.48l-.14,1.08H160v.92a18.45,18.45,0,0,1-1.17,5.37,10.74,10.74,0,0,1,1.45,1.36l-.8,1-.65-.71-.6-.58a11.29,11.29,0,0,1-2.15,2.47l-1-.87a8.31,8.31,0,0,0,2.24-2.38l-1-.75-1.09-.77a23.45,23.45,0,0,0,1.16-3.93H155V37.56Zm.64,5.09a3.71,3.71,0,0,1,.59.45,16.38,16.38,0,0,0,.91-4,4.09,4.09,0,0,1,.05-.41h-1.17l-.38,1.7a18.8,18.8,0,0,1-.58,1.85Zm8-5.81.36.53a23.32,23.32,0,0,1,1.82,3.23l-1.14.67-.23-.55-.26-.5a12.77,12.77,0,0,1-2.8.33,24.33,24.33,0,0,0-2.9.17L160,39.43l.4,0,.36,0a21.14,21.14,0,0,0,1.72-4.33l1.34.19-.24.69a22.31,22.31,0,0,1-1.41,3.44l1.57-.11c.8-.08,1.32-.14,1.56-.19l-.48-.88a11,11,0,0,0-.62-1Zm-4.71,4.93h6.1v5.82h-1.21v-.72h-3.68v.72h-1.21Zm4.89,1.15h-3.68v2.79h3.68Z"/><use width="50" height="50" xlink:href="#TNL-logo-50"/></g></g></g></g></svg>